<?xml version="1.0" encoding="UTF-8" standalone="no"?>
<svg
   xmlns:dc="http://purl.org/dc/elements/1.1/"
   xmlns:cc="http://creativecommons.org/ns#"
   xmlns:rdf="http://www.w3.org/1999/02/22-rdf-syntax-ns#"
   xmlns:svg="http://www.w3.org/2000/svg"
   xmlns="http://www.w3.org/2000/svg"
   xmlns:sodipodi="http://sodipodi.sourceforge.net/DTD/sodipodi-0.dtd"
   xmlns:inkscape="http://www.inkscape.org/namespaces/inkscape"
   inkscape:export-ydpi="96"
   inkscape:export-xdpi="96"
   inkscape:export-filename="/run/media/bogdan/WORK/Work2020/Manjaro2020/SocialMedia_Banners/forum_Banner_11.png"
   sodipodi:docname="forum_Footer.svg"
   inkscape:version="1.0 (4035a4fb49, 2020-05-01)"
   id="svg8"
   version="1.1"
   viewBox="0 0 1983.996 225.00001"
   height="225"
   width="1983.996">
  <defs
     id="defs2">
    <style
       id="current-color-scheme"
       type="text/css">
   .ColorScheme-Text { color:#dfdfdf; } .ColorScheme-Highlight { color:#4285f4; }
  </style>
    <style
       type="text/css"
       id="current-color-scheme-6">
      .ColorScheme-Text {
        color:#eff0f1;
      }
      </style>
    <style
       id="current-color-scheme-0"
       type="text/css">
   .ColorScheme-Text { color:#dfdfdf; } .ColorScheme-Highlight { color:#4285f4; }
  </style>
    <style
       type="text/css"
       id="current-color-scheme-2">
      .ColorScheme-Text {
        color:#eff0f1;
      }
      </style>
    <style
       type="text/css"
       id="current-color-scheme-5">
      .ColorScheme-Text {
        color:#eff0f1;
      }
      </style>
  </defs>
  <sodipodi:namedview
     inkscape:guide-bbox="true"
     showguides="true"
     units="px"
     inkscape:document-rotation="0"
     inkscape:window-maximized="1"
     inkscape:window-y="3"
     inkscape:window-x="1923"
     inkscape:window-height="1047"
     inkscape:window-width="1914"
     showgrid="false"
     inkscape:current-layer="layer1"
     inkscape:document-units="px"
     inkscape:cy="-54.709304"
     inkscape:cx="1176.4396"
     inkscape:zoom="0.5"
     inkscape:pageshadow="2"
     inkscape:pageopacity="0"
     borderopacity="1"
     bordercolor="#2e3340"
     pagecolor="#404552"
     id="base" />
  <metadata
     id="metadata5">
    <rdf:RDF>
      <cc:Work
         rdf:about="">
        <dc:format>image/svg+xml</dc:format>
        <dc:type
           rdf:resource="http://purl.org/dc/dcmitype/StillImage" />
        <dc:title />
      </cc:Work>
    </rdf:RDF>
  </metadata>
  <g
     style="display:inline"
     id="layer1"
     inkscape:groupmode="layer"
     inkscape:label="Layer 1">
    <rect
       inkscape:export-ydpi="96"
       inkscape:export-xdpi="96"
       inkscape:export-filename="/run/media/bogdan/WORK/Work2020/Manjaro2020/Forum/theme/discource-manjaro-theme-dark2/assets/forum_footer_w3_dark.png"
       style="fill:#212121;fill-opacity:1;fill-rule:evenodd;stroke-width:8.62428;stroke-linecap:square;stroke-linejoin:round;stroke-opacity:0.4;paint-order:stroke markers fill"
       id="rect1148"
       width="1983.9965"
       height="225"
       x="0"
       y="0" />
    <path
       id="path875-3"
       style="fill:#171717;fill-opacity:1;stroke:none;stroke-width:3.27864;stroke-linecap:butt;stroke-linejoin:miter;stroke-miterlimit:4;stroke-dasharray:none;stroke-opacity:1"
       d="m 1892.4844,40.507812 -0.096,66.294918 h -13.8907 v -1.61328 h -9.8632 V 91.244141 l -7.8418,-7.759766 h -7.7383 v 37.751955 h -11.4629 v -21.16406 h -4.75 v -9.560551 l -7.8516,-7.658203 H 1822 v 16.042968 h -6.3633 V 76.5625 h -9.9668 v 37.35938 h -8.9316 v -5.53711 h -2.4805 v -0.15625 h -15.3398 v 7.71093 l -20.8184,-13 v 13.91602 h -14.9961 V 70.548828 h -24.1699 v 42.652342 l -14.4707,13 v 3.6543 h -12.0645 v -20.35156 h -14.1718 v 28.01953 h -1.6504 v -16.60742 h -1.6504 v -16.51954 h -3.8008 V 86.460938 h -13.0781 v 17.935542 h -6.084 V 92.853516 h -8.082 v -25.6875 h -16.3497 v 53.750004 h -0.7578 V 82.587891 h -9.8437 v 11.583984 h -7.3301 v 26.744145 h -1.6894 v 8.03125 l -3.6778,-0.0293 0.033,-74.207032 -19.1621,-0.08203 -0.074,57.519534 -0.6406,-25.33594 -10.0332,0.291016 v 7.296875 l -16.502,3.310547 v 10.394532 l -19.6953,6.96094 v -5.48047 h -0.055 l 0.029,-42.533206 -49.6289,-0.277343 0.127,44.191409 h -6.1524 l -0.6074,-58.919925 h -16.541 l 0.1582,39.771484 h -16.334 v 10.970701 l -28.4707,0.81641 -0.3242,-21.507814 h -16.4981 l 0.1309,27.712894 -10.5117,-0.0274 0.037,-23.281247 -21.6778,0.0078 0.064,11.203125 -5.0742,-0.01953 -0.094,-24.646484 -22.8769,-0.123047 -0.074,7.341797 -14.3106,-18.511719 h -0.6699 -1.2949 -1.293 -3.8828 l -0.035,37.216797 -11.2871,-0.08398 -0.1543,-14.552735 -4.6679,-0.05469 -0.029,-9.746094 h -2.5918 -1.4922 -1.7442 -8.0761 -13.2832 l 0.1543,6.669922 -1.8594,0.453125 0.1679,16.925781 -4.9335,0.04492 -0.066,5.847657 h -16.1054 l -0.2188,-21.798829 h -17.8769 l -0.035,23.863279 h -5.1933 v -3.70703 c -0.9259,-1.64697 -1.861,-3.292514 -2.7871,-4.939452 h -11.1485 l 0.029,-6.082031 h -9.9453 V 70.71875 h -17.541 v 21.091797 h -7.1367 v 0.472656 c -2.5888,0.547305 -5.1775,1.091618 -7.7676,1.638672 l 0.3379,-43.884766 h -42.1739 l -0.371,50.324221 h -8.9375 v -8.250002 h -4.2149 c -0.527,0.408624 -1.0556,0.814953 -1.584,1.222656 v -5.355468 h -2.9101 v -4.123047 l -3.5059,-0.01953 -0.2402,16.525392 h -1.541 V 109 l -2.8672,0.006 V 58.371094 c -0.4482,-0.561199 -0.8968,-1.124544 -1.3477,-1.685547 -2.6006,-0.821815 -5.1999,-1.642952 -7.7969,-2.464844 l -21.75,4.150391 -4.9316,2.466797 v 37.898437 h -17.584 L 1046.1914,102 v 12.07617 l -8.4023,0.33008 v 3.75977 h -3.209 l 0.055,-6.14844 -2.8047,0.23828 v 9.13867 h -4.6113 v -1.26562 h -5.0157 v -5.72266 h -14.2187 v -5.37891 h -2.2891 v 5.64649 l -2.4375,0.0547 -0.3203,-44.410161 h -14.67578 l -0.40039,49.431641 -3.26953,0.0352 0.45508,-24.732426 h -4.58204 -6.5332 v 7.341796 1.03711 c -3.51042,-2.06117 -7.64944,-8.814499 -11.16602,-10.86914 h -10.75195 -2.78125 v 15.93359 7.52344 l -16.31445,0.49609 V 91.673828 h -3.33203 l -3.375,1.972656 v -1.972656 h -0.82032 l -1.64257,1.013672 v 13.61523 l -0.61328,0.0352 v 5.92383 h -2.72266 V 81.880859 h -2.55664 V 61.234375 h -7.52735 v -2.943359 h -7.58007 l -3.32617,2.943359 h -5.84766 l -4.24414,2.941406 v 18.666016 h -3.64453 l 0.0371,-16.759766 -20.61719,0.08398 v 12.828125 h -0.84961 V 76.90625 h -2.51367 v 2.087891 h -2.50781 v 1.873047 h -4.97266 v -2.890626 h -2.5586 v -2.03125 h -3.3789 v 2.03125 h -1.68555 v 1.873047 l -5.79297,2.035157 v 2.9375 h -4.24414 V 83.861328 82.84375 l -2.51367,-1.976562 v -7.806641 h -1.64258 -2.50976 -1.69532 v 6.789062 2.035157 h -4.19531 -2.51172 -0.91211 -1.54882 v 10.800781 h -0.82032 V 94.6875 l -6.5332,-0.171875 v 11.289065 h -5.05078 v 5.67578 l -4.49024,-0.0352 v -8.32617 l -11.08984,-0.004 v 2.68946 h -4.12695 l -0.084,-12.330081 -2.66015,-0.04492 -0.0566,-38.806641 -19.15821,0.08203 0.0332,42.113281 -1.29688,1.056641 -2.0293,1.886719 -0.0449,-2.021485 -1.98242,-0.710937 v -2.867188 h -2.51758 v -9.324218 l -4.8125,-0.472657 v -1.787109 h -0.68554 v -9.570313 h -0.92188 -0.91797 l -3.66406,-2.689453 v 12.259766 h -3.6582 v 35.582035 l -3.0293,-0.0117 V 67.154297 h -14.07227 v 18.222656 h -2.25 l 0.0332,7.466797 h -5.85157 v 11.54102 h -3.82421 v -1.91016 -1.92578 -1.978518 -1.982421 -1.923829 -1.978515 -1.978516 -1.923828 -1.978515 -1.982422 -1.978516 -1.976562 -1.873047 -2.087891 -10.75 -4.919922 h -29.29688 v 8.824219 3 1.919922 1.925781 2.087891 1.873047 1.976562 1.978516 1.982422 1.978515 1.923828 1.978516 1.978515 1.923829 1.982421 1.978518 1.92578 1.98242 1.92578 1.01172 h -16.74805 v 1.97852 h -4.24414 v 2.89062 h -10.73828 l -0.12304,0.30469 v 2.41797 l -1.99805,-1.79492 V 70.533203 H 626.19141 V 116.83984 H 611.4082 v -1.4082 -12.50781 l -21.03711,13 v -7.71094 h -15.33398 v 7.71094 h -4.35938 v 5.14844 h -3.55859 v -2.57813 h -3.49609 V 76.548828 h -9.96485 v 22.333984 h -6.36328 V 82.839844 h -6.99609 l -7.84571,7.658203 V 128.25 h -2.32617 v -13.63477 h -5.10351 v -4.03125 l -8.78711,-0.0195 V 83.476562 h -7.74414 l -7.83985,7.757813 v 13.945315 h -9.86132 v 7.71093 l -3.5,-3.51562 h -9.95899 l -0.0644,16.08398 h -2.54492 l 0.14453,-2.37304 -4.53711,0.082 V 93.958984 h -10.60352 v 3.802735 l -2.11914,1.859375 v 22.337886 h -4.17187 v -0.57226 h -0.33203 l -0.0352,-8.94336 -4.89063,0.0352 v -7.36329 h -0.53906 V 87.033203 h -9.86133 l -9.85742,9.755859 v 7.820318 h -1.0293 l -0.14257,4.0664 -2.6211,4.23242 -1.3125,0.16797 -0.17187,7.51367 h -2.5625 v 9.14063 l -0.64258,0.006 V 95.423828 h -11.3418 v 15.310552 4.88281 h -2.67968 v -1.4043 l -9.29297,0.0449 v -3.52148 -16.046877 h -6.50391 l -0.0449,-1.939453 -5.83203,-5.765625 -5.54297,6.099609 v 27.623046 h -1.90234 V 96.050781 l -9.85938,-9.746093 h -9.96484 v 8.476562 h -4.7168 v -3.259766 l -16.28125,0.128907 v 2.308593 h -0.20313 v 0.730469 h -1.37695 v 10.863277 h -1.51172 l 0.0371,-6.974605 h -1.52539 l -0.0371,8.619145 -2.93945,0.0449 v 6.97461 h -1.125 v -5.57618 h -3.36524 l 0.0566,-4.90624 h -2.98047 v -3.37696 l -16.36133,0.0449 -0.0371,5.51172 h -0.63281 V 90.503906 l -7.74414,-7.658203 h -7.73829 v 22.669917 h -0.35351 v 15.08204 h -4.42188 l -0.0566,-4.64454 h -10.35547 l -0.0371,3.50782 -1.0996,-0.01 V 89.765625 l -7.73438,-7.654297 h -7.10742 v 16.046875 h -6.35938 V 75.820312 h -9.85937 v 12.300782 l -2.23047,-0.09961 v 5.322266 l -8.83008,0.04492 V 77.626953 l -4.4707,0.04492 -0.0742,15.669922 -3.01367,0.09375 v 3.462891 l -2.79492,0.04492 -0.11133,5.064451 -2.98438,0.0918 v -3.554688 l -20.75195,0.128906 -0.0352,8.623052 -5.99804,-0.0449 0.0371,-13.982419 h -1.60352 l 0.0371,-5.111328 h -2.94531 l -0.0371,-17.410156 h -5.92774 l -0.0371,-6.927735 -8.86914,0.04492 V 70.75 h -5.95703 v 12.292969 l -4.51367,-0.253907 v -24.25 h -5.99609 v -8.484374 h -4.50977 l 0.0762,10.171874 -4.58398,0.132813 -0.0742,15.675781 -2.01367,0.04492 -0.21485,13.814453 -2.13476,-0.04492 0.0371,-24.554687 -3.05664,-0.04492 0.11133,-6.626953 -14.9043,0.04492 v 29.449219 l -14.94336,0.08203 -0.0352,12.125001 -4.50586,0.1289 0.0371,-24.464839 -5.962888,0.205078 0.07422,-17.658203 -5.957031,0.08398 v 6.927734 H 77.630859 l -0.07422,12.535156 c -0.111593,0 -0.219881,4.701172 -0.332032,4.701172 l -4.138671,7.189453 -0.111329,13.945314 h -1.453125 v -3.63867 l -8.980468,-0.17188 v -8.619139 h -11.814454 -0.03711 l -5.957031,7.146485 V 58.533203 l -3.089844,-0.04492 -0.03711,-5.021484 H 22.378906 l 0.03711,48.580083 -8.941407,0.0449 v 5.37109 L 5.7246094,107.37891 5.6894531,74.726562 0,74.78125 v 135.92969 h 541.91016 351.13086 134.77348 144.8496 86.4765 217.1387 207.4648 90.7891 209.4629 V 75 h -12.418 v 19.435547 h -6.5996 V 81.923828 h -8.7578 V 54.085938 H 1938.5 v 39.847656 l -0.8105,-0.802735 V 70.796875 h -10.6739 v 12.558594 h -7.9472 v 28.984371 h -1.8301 v 9.62696 h -3.9883 l 0.035,-81.376956 z"
       sodipodi:nodetypes="cccccccccccccccccccccccccccccccccccccccccccccccccccccccccccccccccccccccccccccccccccccccccccccccccccccccccccccccccccccccccccccccccccccccccccccccccccccccccccccccccccccccccccccccccccccccccccccccccccccccccccccccccccccccccccccccccccccccccccccccccccccccccccccccccccccccccccccccccccccccccccccccccccccccccccccccccccccccccccccccccccccccccccccccccccccccccccccccccccccccccccccccccccccccccccccccccccccccccccccccccccccccccccccccccccccccccccccccccccccccccccccccccccccccccccccccccccccccccccccccccccccccccccccccccccccccccccccccccccccccccccccccccccccccccccccccccccccccc" />
    <path
       id="path2162-6"
       style="fill:#157c68;fill-opacity:1;stroke:none;stroke-width:3.29881;stroke-linecap:butt;stroke-linejoin:miter;stroke-miterlimit:4;stroke-dasharray:none;stroke-opacity:1"
       d="M 1899.3477 40.273438 L 1899.252 107.33008 L 1885.3496 107.33008 L 1885.3496 105.69727 L 1875.4766 105.69727 L 1875.4766 91.591797 L 1867.6289 83.744141 L 1859.8828 83.744141 L 1859.8828 121.92969 L 1848.4121 121.92969 L 1848.4121 100.52148 L 1843.6562 100.52148 L 1843.6562 90.853516 L 1835.7988 83.107422 L 1828.8027 83.107422 L 1828.8027 99.333984 L 1822.4336 99.333984 L 1822.4336 76.742188 L 1812.459 76.742188 L 1812.459 114.53125 L 1803.5195 114.53125 L 1803.5195 108.92969 L 1801.0371 108.92969 L 1801.0371 108.77148 L 1785.6836 108.77148 L 1785.6836 116.57031 L 1764.8477 103.42188 L 1764.8477 117.49805 L 1749.8398 117.49805 L 1749.8398 70.660156 L 1725.6484 70.660156 L 1725.6484 113.80078 L 1711.166 126.95117 L 1711.166 130.64648 L 1699.0918 130.64648 L 1699.0918 110.0625 L 1684.9082 110.0625 L 1684.9082 138.40234 L 1683.2559 138.40234 L 1683.2559 121.60547 L 1681.6035 121.60547 L 1681.6035 104.89648 L 1677.8008 104.89648 L 1677.8008 86.755859 L 1664.709 86.755859 L 1664.709 104.89648 L 1658.6211 104.89648 L 1658.6211 93.220703 L 1650.5312 93.220703 L 1650.5312 67.238281 L 1634.1699 67.238281 L 1634.1699 121.60547 L 1633.4121 121.60547 L 1633.4121 82.835938 L 1623.5586 82.835938 L 1623.5586 94.554688 L 1616.2227 94.554688 L 1616.2227 121.60547 L 1614.5312 121.60547 L 1614.5312 129.72852 L 1610.8496 129.69922 L 1610.8848 54.640625 L 1591.7051 54.556641 L 1591.6309 112.73633 L 1590.9883 87.111328 L 1580.9473 87.40625 L 1580.9473 94.785156 L 1564.4316 98.132812 L 1564.4316 108.64844 L 1544.7207 115.68945 L 1544.7207 110.14648 L 1544.6641 110.14648 L 1544.6934 67.125 L 1495.0234 66.84375 L 1495.1484 111.54102 L 1488.9922 111.54102 L 1488.3848 51.945312 L 1471.8281 51.945312 L 1471.9863 92.173828 L 1455.6387 92.173828 L 1455.6387 103.26953 L 1427.1445 104.0957 L 1426.8203 82.341797 L 1410.3086 82.341797 L 1410.4395 110.37305 L 1399.9199 110.34375 L 1399.9551 86.796875 L 1378.2578 86.804688 L 1378.3242 98.136719 L 1373.2441 98.117188 L 1373.1504 73.1875 L 1350.2559 73.060547 L 1350.1816 80.488281 L 1335.8574 61.763672 L 1335.1855 61.763672 L 1333.8906 61.763672 L 1332.5957 61.763672 L 1328.7109 61.763672 L 1328.6758 99.40625 L 1317.3789 99.322266 L 1317.2246 84.603516 L 1312.5527 84.546875 L 1312.5234 74.689453 L 1309.9277 74.689453 L 1308.4355 74.689453 L 1306.6914 74.689453 L 1298.6074 74.689453 L 1285.3125 74.689453 L 1285.4668 81.435547 L 1283.6055 81.894531 L 1283.7754 99.015625 L 1278.8359 99.060547 L 1278.7715 104.97461 L 1262.6504 104.97461 L 1262.4336 82.925781 L 1244.5391 82.925781 L 1244.5039 107.0625 L 1239.3066 107.0625 L 1239.3066 103.3125 C 1238.3799 101.64665 1237.4445 99.982231 1236.5176 98.316406 L 1225.3594 98.316406 L 1225.3887 92.166016 L 1215.4336 92.166016 L 1215.4336 70.830078 L 1197.8789 70.830078 L 1197.8789 92.166016 L 1190.7363 92.166016 L 1190.7363 92.644531 C 1188.1454 93.198085 1185.5532 93.747449 1182.9609 94.300781 L 1183.3008 49.914062 L 1141.0918 49.914062 L 1140.7207 100.81641 L 1131.7754 100.81641 L 1131.7754 92.472656 L 1127.5566 92.472656 C 1127.0292 92.885939 1126.5014 93.296594 1125.9727 93.708984 L 1125.9727 88.291016 L 1123.0586 88.291016 L 1123.0586 84.121094 L 1119.5508 84.101562 L 1119.3086 100.81641 L 1117.7676 100.81641 L 1117.7676 109.55273 L 1114.8965 109.55859 L 1114.8965 58.341797 C 1114.4479 57.774182 1114.0001 57.204139 1113.5488 56.636719 C 1110.9461 55.805459 1108.3433 54.973908 1105.7441 54.142578 L 1083.9746 58.341797 L 1079.041 60.835938 L 1079.041 99.169922 L 1061.4414 99.169922 L 1052.334 102.4707 L 1052.334 114.68555 L 1043.9258 115.01953 L 1043.9258 118.82227 L 1040.7109 118.82227 L 1040.7676 112.60352 L 1037.9609 112.8457 L 1037.9609 122.08984 L 1033.3457 122.08984 L 1033.3457 120.80859 L 1028.3242 120.80859 L 1028.3242 115.01953 L 1014.0938 115.01953 L 1014.0938 109.57812 L 1011.8027 109.57812 L 1011.8027 115.29102 L 1009.3633 115.3457 L 1009.043 70.425781 L 994.35547 70.425781 L 993.95508 120.42383 L 990.68359 120.46094 L 991.13672 95.443359 L 986.55273 95.443359 L 980.01367 95.443359 L 980.01367 102.87109 L 980.01367 103.91992 C 976.50046 101.83512 972.35557 95.003995 968.83594 92.925781 L 958.07617 92.925781 L 955.29102 92.925781 L 955.29102 109.04102 L 955.29102 116.65234 L 938.96289 117.1543 L 938.96289 92.027344 L 935.62891 92.027344 L 932.25195 94.023438 L 932.25195 92.027344 L 931.42969 92.027344 L 929.78711 93.050781 L 929.78711 106.82227 L 929.17383 106.85938 L 929.17383 112.84961 L 926.44922 112.84961 L 926.44922 82.123047 L 923.88867 82.123047 L 923.88867 61.238281 L 916.35547 61.238281 L 916.35547 58.261719 L 908.76953 58.261719 L 905.43945 61.238281 L 899.58789 61.238281 L 895.33984 64.214844 L 895.33984 83.09375 L 891.69141 83.09375 L 891.72852 66.142578 L 871.09375 66.226562 L 871.09375 79.201172 L 870.24414 79.201172 L 870.24414 77.089844 L 867.72656 77.089844 L 867.72656 79.201172 L 865.21875 79.201172 L 865.21875 81.095703 L 860.24219 81.095703 L 860.24219 78.171875 L 857.68164 78.171875 L 857.68164 76.117188 L 854.29883 76.117188 L 854.29883 78.171875 L 852.61133 78.171875 L 852.61133 80.066406 L 846.8125 82.125 L 846.8125 85.095703 L 842.56641 85.095703 L 842.56641 84.125 L 842.56641 83.095703 L 840.05078 81.095703 L 840.05078 73.199219 L 838.40625 73.199219 L 835.89453 73.199219 L 834.19727 73.199219 L 834.19727 80.066406 L 834.19727 82.125 L 829.99805 82.125 L 827.48633 82.125 L 826.57227 82.125 L 825.02148 82.125 L 825.02148 93.050781 L 824.19922 93.050781 L 824.19922 95.074219 L 817.66211 94.900391 L 817.66211 106.32031 L 812.60742 106.32031 L 812.60742 112.06055 L 808.11328 112.02539 L 808.11328 103.60156 L 797.01367 103.59961 L 797.01367 106.32031 L 792.88281 106.32031 L 792.79883 93.847656 L 790.13672 93.802734 L 790.08008 54.550781 L 770.90625 54.634766 L 770.93945 97.230469 L 769.64062 98.298828 L 767.61133 100.20703 L 767.56641 98.162109 L 765.58008 97.443359 L 765.58008 94.542969 L 763.0625 94.542969 L 763.0625 85.111328 L 758.24414 84.632812 L 758.24414 82.824219 L 757.55859 82.824219 L 757.55859 73.146484 L 756.63477 73.146484 L 755.7168 73.146484 L 752.05078 70.425781 L 752.05078 82.824219 L 748.38867 82.824219 L 748.38867 118.81641 L 745.35547 118.80469 L 745.35547 67.224609 L 731.27148 67.224609 L 731.27148 85.65625 L 729.01953 85.65625 L 729.05273 93.208984 L 723.19727 93.208984 L 723.19727 104.88281 L 719.37109 104.88281 L 719.37109 102.94922 L 719.37109 101.00195 L 719.37109 99.001953 L 719.37109 96.996094 L 719.37109 95.048828 L 719.37109 93.048828 L 719.37109 91.048828 L 719.37109 89.101562 L 719.37109 87.099609 L 719.37109 85.095703 L 719.37109 83.09375 L 719.37109 81.09375 L 719.37109 79.199219 L 719.37109 77.087891 L 719.37109 66.214844 L 719.37109 61.238281 L 690.04883 61.238281 L 690.04883 70.164062 L 690.04883 73.197266 L 690.04883 75.140625 L 690.04883 77.087891 L 690.04883 79.199219 L 690.04883 81.09375 L 690.04883 83.09375 L 690.04883 85.095703 L 690.04883 87.099609 L 690.04883 89.101562 L 690.04883 91.048828 L 690.04883 93.048828 L 690.04883 95.048828 L 690.04883 96.996094 L 690.04883 99.001953 L 690.04883 101.00195 L 690.04883 102.94922 L 690.04883 104.95508 L 690.04883 106.90234 L 690.04883 107.92773 L 673.28516 107.92773 L 673.28516 109.92773 L 669.03711 109.92773 L 669.03711 112.85156 L 658.29102 112.85156 L 658.17188 113.16016 L 658.17188 115.60547 L 656.16992 113.78906 L 656.16992 70.642578 L 631.98047 70.642578 L 631.98047 117.48047 L 617.18359 117.48047 L 617.18359 116.05469 L 617.18359 103.4043 L 596.13086 116.55273 L 596.13086 108.75391 L 580.7832 108.75391 L 580.7832 116.55273 L 576.41992 116.55273 L 576.41992 121.76172 L 572.85742 121.76172 L 572.85742 119.15234 L 569.35938 119.15234 L 569.35938 76.726562 L 559.38672 76.726562 L 559.38672 99.316406 L 553.01758 99.316406 L 553.01758 83.089844 L 546.01562 83.089844 L 538.16211 90.835938 L 538.16211 129.01953 L 535.83398 129.01953 L 535.83398 115.22852 L 530.72656 115.22852 L 530.72656 111.15039 L 521.93164 111.13086 L 521.93164 83.732422 L 514.18164 83.732422 L 506.33398 91.580078 L 506.33398 105.68555 L 496.4668 105.68555 L 496.4668 113.48438 L 492.96289 109.92773 L 482.99414 109.92773 L 482.92969 126.19922 L 480.38281 126.19922 L 480.5293 123.79688 L 475.98633 123.88086 L 475.98633 94.337891 L 465.375 94.337891 L 465.375 98.185547 L 463.25391 100.06445 L 463.25391 122.66016 L 459.07812 122.66016 L 459.07812 122.08008 L 458.74609 122.08008 L 458.71094 113.03516 L 453.81641 113.07031 L 453.81641 105.62305 L 453.27539 105.62305 L 453.27539 87.333984 L 443.40625 87.333984 L 433.54102 97.201172 L 433.54102 105.11133 L 432.50977 105.11133 L 432.36719 109.22266 L 429.74414 113.50391 L 428.42969 113.67383 L 428.25977 121.27539 L 425.69336 121.27539 L 425.69336 130.51953 L 425.05078 130.52539 L 425.05078 95.820312 L 413.70117 95.820312 L 413.70117 111.30664 L 413.70117 116.24609 L 411.01758 116.24609 L 411.01758 114.82617 L 401.7168 114.87109 L 401.7168 111.31055 L 401.7168 95.078125 L 395.20703 95.078125 L 395.16211 93.117188 L 389.32617 87.285156 L 383.77734 93.455078 L 383.77734 121.39453 L 381.875 121.39453 L 381.875 96.455078 L 372.00781 86.597656 L 362.0332 86.597656 L 362.0332 95.169922 L 357.3125 95.169922 L 357.3125 91.875 L 341.01758 92.003906 L 341.01758 94.337891 L 340.81836 94.337891 L 340.81836 95.078125 L 339.43945 95.078125 L 339.43945 106.06641 L 337.92773 106.06641 L 337.96484 99.011719 L 336.4375 99.011719 L 336.40039 107.72852 L 333.45898 107.77539 L 333.45898 114.83008 L 332.33203 114.83008 L 332.33203 109.19141 L 328.96484 109.19141 L 329.01953 104.22852 L 326.03906 104.22852 L 326.03906 100.81055 L 309.66211 100.85742 L 309.625 106.43359 L 308.99219 106.43359 L 308.99219 90.84375 L 301.24219 83.097656 L 293.49609 83.097656 L 293.49609 106.02734 L 293.14453 106.02734 L 293.14453 121.2832 L 288.7168 121.2832 L 288.66211 116.58594 L 278.29688 116.58594 L 278.25977 120.13281 L 277.1582 120.12109 L 277.1582 90.09375 L 269.41797 82.353516 L 262.30469 82.353516 L 262.30469 98.583984 L 255.93945 98.583984 L 255.93945 75.988281 L 246.07227 75.988281 L 246.07227 88.431641 L 243.83984 88.330078 L 243.83984 93.712891 L 235.00195 93.757812 L 235.00195 77.816406 L 230.52734 77.863281 L 230.45312 93.712891 L 227.4375 93.806641 L 227.4375 97.308594 L 224.63867 97.355469 L 224.52734 102.47656 L 221.54102 102.57031 L 221.54102 98.976562 L 200.77148 99.105469 L 200.73633 107.82812 L 194.73438 107.7832 L 194.76953 93.638672 L 193.16602 93.638672 L 193.20312 88.46875 L 190.25391 88.46875 L 190.21875 70.859375 L 184.28516 70.859375 L 184.24805 63.853516 L 175.37109 63.898438 L 175.37109 70.861328 L 169.41016 70.861328 L 169.41016 83.294922 L 164.89258 83.039062 L 164.89258 58.509766 L 158.89062 58.509766 L 158.89062 49.927734 L 154.37695 49.927734 L 154.45312 60.216797 L 149.86719 60.351562 L 149.79102 76.207031 L 147.77539 76.251953 L 147.56055 90.226562 L 145.42578 90.179688 L 145.46289 65.34375 L 142.40234 65.296875 L 142.51562 58.595703 L 127.59766 58.640625 L 127.59766 88.425781 L 112.64258 88.509766 L 112.60547 100.77539 L 108.09766 100.9043 L 108.13281 76.158203 L 102.16602 76.367188 L 102.24023 58.505859 L 96.277344 58.591797 L 96.277344 65.597656 L 82.960938 65.597656 L 82.884766 78.277344 C 82.773174 78.277344 82.665163 83.033203 82.552734 83.033203 L 78.410156 90.304688 L 78.298828 104.41016 L 76.845703 104.41016 L 76.845703 100.72852 L 67.857422 100.55469 L 67.857422 91.837891 L 56.033203 91.837891 L 55.996094 91.837891 L 50.033203 99.066406 L 50.033203 58.505859 L 46.939453 58.460938 L 46.904297 53.380859 L 27.662109 53.380859 L 27.697266 102.51953 L 18.75 102.56641 L 18.75 107.99805 L 10.994141 107.91211 L 10.957031 74.884766 L 0 74.994141 L 0 212.43164 L 547.64062 212.43164 L 899.06836 212.43164 L 1033.9551 212.43164 L 1178.9277 212.43164 L 1265.4766 212.43164 L 1482.8027 212.43164 L 1690.4434 212.43164 L 1781.3086 212.43164 L 1983.9961 212.43164 L 1983.9961 75.162109 L 1978.5098 75.162109 L 1978.5098 94.820312 L 1971.9023 94.820312 L 1971.9023 82.164062 L 1963.1367 82.164062 L 1963.1367 54.005859 L 1945.4043 54.005859 L 1945.4043 94.3125 L 1944.5918 93.5 L 1944.5918 70.910156 L 1933.9082 70.910156 L 1933.9082 83.613281 L 1925.9531 83.613281 L 1925.9531 112.93164 L 1924.123 112.93164 L 1924.123 122.66797 L 1920.1309 122.66797 L 1920.166 40.355469 L 1899.3477 40.273438 z " />
    <path
       id="path875"
       style="fill:#1b9f85;fill-opacity:1;stroke:none;stroke-width:2.4261;stroke-linecap:butt;stroke-linejoin:miter;stroke-miterlimit:4;stroke-dasharray:none;stroke-opacity:1"
       d="m 237.38867,2.3613281 0.0566,82.3242189 -14.29687,-0.613281 v 9.132812 l -12.47656,-0.714844 -0.0586,-55.726562 -28.50195,-1.431641 V 40.03125 L 172.125,51.675781 V 21.443359 l -27.3418,-1.748047 v 9.248047 l -12.1875,-0.75 -0.0605,72.400391 -5.15821,-0.14258 -0.0586,20.91016 -24.60156,-0.98438 V 64.617188 L 42.597656,61.652344 v 63.099606 l -14.496094,-0.60156 -0.0625,3.02344 -21.1816401,-0.66211 0,98.49423 909.1015581,-0.49414 335.27342,-0.18165 110.1426,-0.0605 108.9668,-0.0586 60.877,-0.0332 140.7148,-0.0762 120.2734,-0.0644 48.8223,-0.0293 142.9668,-0.0781 0,-51.36141 -0.8438,-0.0391 v -43.82422 l -12.0996,-0.82617 v 42.31054 l -0.998,1.7168 v -10.26367 l -0.6387,-0.0312 v -0.66992 l -2.6699,-0.13868 -2.625,4.38672 v 16.93946 l -0.3809,0.65625 v 2.90429 l -4.2402,-0.16797 v -32.13867 l -4.6934,-0.25976 -4.666,8.75195 v 23.27539 l -0.6445,-0.0254 v -8.22266 l -0.8496,-0.0371 v -16.56835 l -1.957,-0.10157 v -18 l -6.7696,-0.4082 v 18.05859 l -3.166,-0.16406 v -11.64453 l -4.2168,-0.24219 v -25.95898 l -8.582,-0.59961 v 37.3125 l -0.3946,-0.77149 v -20.91796 l -5.207,-0.32422 v 11.79296 l -3.8945,-0.2207 v 27.26367 l -0.8985,-0.0391 v 9.05859 l -1.9609,-0.0762 0.018,-76.65234 -10.2852,-0.85742 -0.047,62.74609 -6.9278,-0.31836 v -1.53515 l -4.9472,-0.23047 v -13.27539 l -3.9473,-7.60938 -3.9121,-0.2207 v 36.06836 l -5.8203,-0.23047 v -20.27734 l -2.4219,-0.11915 v -9.16796 l -4.0137,-7.57422 -3.5879,-0.20508 v 15.44336 l -3.2754,-0.16406 v -21.53125 l -5.1504,-0.30664 v 36.10156 l -4.6367,-0.19922 v -5.36133 l -1.2929,-0.0586 v -0.15235 l -8.0196,-0.36523 v 7.5 l -10.9804,-13.16992 v 13.60351 l -7.9786,-0.33203 v -45.43359 l -12.9843,-0.81055 v 42.09766 l -7.8477,12.53515 v 3.6211 l -6.5859,-0.23633 v -20.21875 l -7.7852,-0.34961 v 27.93359 l -0.9101,-0.0293 v -16.5625 l -0.9121,-0.0371 v -16.48243 l -2.1016,-0.0996 v -17.91211 l -7.2598,-0.40235 v 17.97071 l -3.3945,-0.16016 v -11.58399 l -4.5234,-0.23632 v -25.83008 l -9.2071,-0.58984 v 54.27148 l -0.4297,-0.0156 v -38.70898 l -5.5839,-0.31836 v 11.72852 l -4.1739,-0.2168 v 27.125 l -0.9648,-0.0371 v 8.14844 l -2.1035,-0.10547 0.02,-75.36719 -11.0195,-0.85156 -0.043,58.70312 -0.3691,-25.87695 -5.8145,-0.0234 v 7.4668 l -9.6289,2.9043 v 10.68359 l -11.5977,6.66016 v -5.66016 h -0.033 l 0.018,-43.93359 -29.7558,-2.19727 0.076,46.24219 -3.7422,-0.16602 -0.3691,-61.77148 -10.125,-0.7168 0.098,41.87305 -10.084,-0.5332 v 11.5957 l -17.7852,0.0195 -0.2031,-22.92187 -10.4316,-0.59766 0.084,29.65625 -6.6933,-0.33008 0.022,-24.97656 -13.9239,-0.75977 0.041,12.0918 -3.2813,-0.1875 -0.062,-26.63672 -14.9102,-1.04883 -0.049,7.98047 -9.4238,-20.75586 -0.4434,-0.0293 -0.8554,-0.0566 -0.8575,-0.0566 -2.5722,-0.17187 -0.022,40.70508 -7.5156,-0.46485 -0.1016,-15.9707 -3.1211,-0.23633 -0.021,-10.70898 -1.7363,-0.10547 -1,-0.0586 -1.1699,-0.0723 -5.4375,-0.33008 -8.9942,-0.54492 0.1035,7.38867 -1.2636,0.42969 0.1152,18.74805 -3.3613,-0.11719 -0.045,6.48242 -11.0352,-0.52148 -0.1484,-24.28907 -12.3672,-0.70507 -0.025,26.71289 -3.6152,-0.16797 v -4.15625 c -0.6457,-1.87782 -1.2968,-3.75508 -1.9434,-5.63477 l -7.8086,-0.39258 0.02,-6.84375 -7.0078,-0.37109 v -23.80274 l -12.4551,-0.77734 v 23.92188 l -5.1015,-0.26954 v 0.53711 c -1.8561,0.52463 -3.7156,1.04642 -5.5781,1.57227 l 0.2421,-49.966797 -30.7109,-2.201172 -0.2734,57.996089 -6.6055,-0.32421 v -9.53711 l -3.127,-0.16407 c -0.3915,0.45228 -0.785,0.90208 -1.1777,1.35352 v -6.19922 l -2.166,-0.11914 v -4.77734 l -2.6133,-0.16993 -0.1797,19.15821 -1.1504,-0.0566 v 10.02343 l -2.1445,-0.0898 V 91.242188 c -0.3353,-0.674634 -0.6702,-1.352433 -1.0078,-2.027344 -1.9489,-1.08945 -3.8994,-2.180808 -5.8516,-3.273438 l -16.4668,3.716797 -3.7597,2.636719 v 44.478518 l -13.5059,-0.67188 -7.043,3.50782 v 14.28515 l -6.5371,0.11133 v 4.45898 l -2.5058,-0.10351 0.043,-7.29688 -2.1953,0.1875 v 10.85743 l -3.6133,-0.14454 v -1.50586 l -3.9433,-0.1582 v -6.81836 l -11.2402,-0.48047 v -6.43359 l -1.8184,-0.082 v 6.75976 l -1.9395,-0.0176 -0.2539,-53.21875 -11.7382,-0.734379 -0.3223,59.472659 -2.6289,-0.0645 0.3652,-29.77734 -3.6914,-0.18945 -5.2832,-0.27149 v 8.87305 1.25391 c -2.8473,-2.62948 -6.2142,-10.97371 -9.0801,-13.61329 l -8.7988,-0.46289 -2.2852,-0.11914 v 19.40039 9.16211 l -13.4863,0.041 v -30.40039 l -2.7695,-0.14649 -2.8125,2.26953 v -2.41796 l -0.6856,-0.0371 -1.3691,1.16992 v 16.70898 l -0.5137,0.0195 v 7.27149 l -2.2773,-0.0996 V 110 l -2.1406,-0.12305 V 84.494141 l -6.3262,-0.421875 v -3.626954 l -6.3985,-0.435546 -2.8183,3.447265 -4.9668,-0.330078 -3.6152,3.408203 v 23.148434 l -3.1153,-0.17773 0.031,-20.804688 -17.7442,-1.041016 v 16.029294 l -0.7363,-0.043 v -2.60937 l -2.1816,-0.13086 v 2.61133 l -2.1758,-0.12696 v 2.34376 l -4.3301,-0.25 v -3.625 l -2.2324,-0.13086 v -2.548832 l -2.9551,-0.177735 v 2.550777 l -1.4766,-0.0859 v 2.35351 l -5.0859,2.26563 v 3.69922 l -3.7363,-0.20899 v -1.21094 -1.2832 l -2.2188,-2.62109 v -9.849612 l -1.4512,-0.08984 -2.2207,-0.136718 -1.5019,-0.0918 v 8.582031 2.57227 l -3.7227,-0.21289 -2.2343,-0.12891 -0.8125,-0.0469 -1.3809,-0.0801 v 13.69336 l -0.7324,-0.0391 v 2.53907 l -5.8379,-0.51954 v 14.34375 l -4.5313,-0.21093 v 7.22461 l -4.041,-0.22266 v -10.61328 l -10.0293,-0.48438 v 3.43946 l -3.7519,-0.17383 -0.074,-15.79688 -2.4239,-0.18359 -0.051,-49.750001 -17.5722,-1.115234 0.029,54.318355 -1.1992,1.30079 -1.875,2.34375 -0.041,-2.61133 -1.8359,-1.01172 v -3.70313 l -2.332,-0.12109 v -12.05859 l -4.4707,-0.86329 v -2.31445 l -0.6387,-0.0371 V 89.957031 l -0.8594,-0.05273 -0.8554,-0.05273 -3.4161,-3.701171 v 15.908199 l -3.4238,-0.19531 v 46.22852 l -2.8398,-0.12891 V 81.646484 l -13.2617,-0.847656 v 23.804692 l -2.1309,-0.11914 0.027,9.76367 -5.5586,-0.29297 v 15.11914 l -3.6445,-0.17188 v -2.50586 -2.52539 -2.59375 -2.59961 -2.52539 -2.59375 -2.59375 -2.52539 -2.59375 -2.60156 -2.59375 -2.593749 -2.455079 -2.738281 -14.097656 -6.455078 l -28.2246,-1.880859 v 11.685546 3.972657 2.542968 2.548829 2.765624 2.478516 2.619141 2.619141 2.62695 2.61914 2.54883 2.61914 2.61914 2.54883 2.625 2.61914 2.55078 2.625 2.54883 1.3418 l -16.3828,-0.75196 v 2.63282 l -4.1797,-0.1875 v 3.85351 l -10.6309,-0.46484 -0.1191,0.4043 v 3.23632 l -1.9883,-2.49023 V 80.660156 l -24.2402,-1.513672 v 62.519536 l -15.02345,-0.62696 v -1.91211 -16.9707 l -21.63672,16.72852 v -10.53711 l -15.96875,-0.72657 v 10.5918 l -4.57031,-0.19336 v 7.08594 l -3.74024,-0.14844 v -3.55273 l -3.68359,-0.15235 V 83.404297 l -10.55078,-0.630859 v 30.908202 l -6.77539,-0.33594 V 91.095703 l -7.48243,-0.425781 -8.43554,10.195308 v 52.62696 l -2.50977,-0.0918 v -19.02148 l -5.52148,-0.23633 v -5.63477 l -9.55078,-0.45312 V 90.078125 l -8.4668,-0.478516 -8.61914,10.449221 v 19.65625 l -10.90625,-0.51172 v 10.9082 l -3.89063,-5.14844 -11.12109,-0.50195 -0.0742,22.85938 -2.85352,-0.10743 0.16407,-3.37109 -5.10352,-0.0801 v -41.61718 l -11.98633,-0.62305 v 5.43945 l -2.40625,2.53906 v 31.97461 l -4.74804,-0.1875 v -0.82226 l -0.37891,-0.0137 -0.0332,-12.82227 -5.58594,-0.19336 v -10.57226 l -0.61914,-0.0293 V 90.851562 l -11.32617,-0.625 -11.4043,13.484378 v 11.31445 l -1.19336,-0.0566 -0.16797,5.87695 -3.04883,5.99219 -1.52929,0.17773 -0.19532,10.88282 -2.99218,-0.11914 v 13.25781 l -0.74805,-0.0195 v -49.78711 l -13.30273,-0.68359 v 22.31054 7.11328 l -3.15821,-0.13281 v -2.04883 l -11.0039,-0.40625 v -5.15234 -23.482423 l -7.74414,-0.400391 -0.0547,-2.847656 -6.97656,-8.84375 -6.65821,8.621094 V 135.9668 l -2.29101,-0.0918 V 99.529297 L 715.8457,84.503906 703.70312,83.830078 v 12.585938 l -5.78124,-0.298828 v -4.845704 l -20.10352,-0.875 v 3.453125 l -0.25195,-0.0098 v 1.09375 l -1.71094,-0.08789 v 16.267577 l -1.88086,-0.0879 0.0449,-10.44922 -1.90039,-0.0937 -0.0449,12.91797 -3.66992,-0.10156 v 10.46679 l -1.40625,-0.0586 v -8.37109 l -4.21289,-0.19141 0.0703,-7.37305 -3.73828,-0.17773 v -5.08203 l -20.68555,-0.94727 -0.0449,8.34571 -0.80469,-0.0371 V 86.529297 l -9.88281,-12.162109 -9.9375,-0.564454 v 34.535156 l -0.45313,-0.0215 v 22.98047 l -5.70507,-0.22657 -0.0723,-7.09179 -13.4375,-0.56446 -0.0449,5.3711 -1.43555,-0.0723 V 83.201172 L 586.5,70.890625 577.1543,70.355469 v 24.740234 l -8.40625,-0.419922 V 60.148438 l -13.11328,-0.78711 v 19.085938 l -2.98047,-0.31836 v 8.263672 L 540.80273,85.84375 V 61.285156 l -6.0332,-0.287109 -0.0996,24.453125 -4.07617,-0.06641 v 5.412109 l -3.79297,-0.121094 -0.15039,7.914063 -4.05664,-0.05078 v -5.566406 l -28.4707,-1.21875 -0.0488,13.615234 -8.31445,-0.45312 0.0488,-22.130864 -2.23047,-0.117187 0.0488,-8.09375 -4.10156,-0.222657 -0.0508,-27.607421 -8.28906,-0.517579 -0.0488,-11.013671 -12.47266,-0.744141 v 10.980469 l -8.42773,-0.525391 v 19.652344 l -6.41211,-0.769531 V 24.964844 l -8.55469,-0.580078 V 10.761719 l -6.45898,-0.462891 0.10547,16.367188 -6.5879,-0.226563 -0.10742,25.25 -2.90234,-0.101562 -0.30664,22.265625 -3.08203,-0.238282 0.0508,-39.636718 -4.42188,-0.359375 0.16016,-10.697266 -21.72461,-1.400391 v 47.878907 l -22.04687,-1.066407 -0.0527,19.832032 -6.69922,-0.119141 0.0527,-40.091797 -8.90625,-0.197266 0.11132,-29 -8.9414,-0.46875 v 11.40625 l -20.12891,-1.300781 -0.11328,20.75 c -0.16962,-0.01116 -0.33532,7.765597 -0.50586,7.75586 l -6.30664,11.568359 -0.16992,23.126953 -2.2207,-0.105469 v -6.042968 l -13.7793,-0.962891 V 70.123047 l -18.28516,-0.96875 -0.0547,-0.002 -9.29102,11.503906 V 13.339844 l -4.83594,-0.404297 -0.0547,-8.4433595 z M 1901.332,106.80469 v -0.004 l -0,0.004 z"
       sodipodi:nodetypes="cccccccccccccccccccccccccccccccccccccccccccccccccccccccccccccccccccccccccccccccccccccccccccccccccccccccccccccccccccccccccccccccccccccccccccccccccccccccccccccccccccccccccccccccccccccccccccccccccccccccccccccccccccccccccccccccccccccccccccccccccccccccccccccccccccccccccccccccccccccccccccccccccccccccccccccccccccccccccccccccccccccccccccccccccccccccccccccccccccccccccccccccccccccccccccccccccccccccccccccccccccccccccccccccccccccccccccccccccccccccccccccccccccccccccccccccccccccccccccccccccccccccccccccccccccccccccccccccccccccccccccccccccccccccccccccccccccccccccccccccccccccccccccccccccccccccccccccccccccc" />
    <path
       id="path2162"
       style="fill:#171717;fill-opacity:1;stroke:none;stroke-width:2.41995;stroke-linecap:butt;stroke-linejoin:miter;stroke-miterlimit:4;stroke-dasharray:none;stroke-opacity:1"
       d="m 230.14258,2.3632812 0.0566,82.3242188 -14.40234,-0.613281 v 9.132812 l -12.57032,-0.714843 -0.0566,-55.726563 -28.71484,-1.431641 v 4.699219 L 164.39453,51.679688 V 21.447266 l -27.54492,-1.75 v 9.248046 l -12.27734,-0.75 -0.0606,72.402348 -5.19727,-0.14454 -0.0586,20.91016 -24.785157,-0.98242 V 64.619141 L 33.904297,61.654297 v 63.099613 l -14.603516,-0.59961 -0.0625,3.02148 L 0,126.57812 V 225 h 1983.9965 l -4e-4,-96.62296 -7.3086,-0.49609 v 42.3125 l -1.0039,1.71484 v -10.26172 l -0.6465,-0.0332 v -0.66992 l -2.6875,-0.13867 -2.6445,4.38672 v 16.93945 l -0.3848,0.65625 v 2.9043 l -4.2715,-0.16797 v -32.13867 l -4.7285,-0.25977 -4.7012,8.75195 v 23.27539 l -0.6484,-0.0254 v -8.22265 l -0.8574,-0.0371 v -16.56836 l -1.9688,-0.10156 v -18 l -6.8203,-0.40821 v 18.0586 l -3.1894,-0.16407 v -11.64453 l -4.2481,-0.24218 v -25.95899 l -8.6465,-0.59961 v 37.31445 l -0.3984,-0.77343 v -20.91602 l -5.2461,-0.32617 v 11.79297 l -3.9219,-0.2207 v 27.26367 l -0.9043,-0.0391 v 9.0586 l -1.9765,-0.0762 0.018,-76.65235 -10.3652,-0.85742 -0.049,62.74414 -6.9785,-0.31836 v -1.53515 l -4.9825,-0.23047 v -13.27539 l -3.9785,-7.60938 -3.9414,-0.2207 v 36.06836 l -5.8633,-0.23047 v -20.27734 l -2.4394,-0.11915 v -9.16796 l -4.0449,-7.57422 -3.6133,-0.20508 v 15.44336 l -3.2988,-0.16406 v -21.53125 l -5.1895,-0.30664 v 36.10156 l -4.6719,-0.19922 v -5.36133 l -1.3007,-0.0586 v -0.15235 l -8.0801,-0.36523 v 7.5 l -11.0625,-13.16992 v 13.60351 l -8.0371,-0.33203 v -45.43359 l -13.0801,-0.81055 v 42.0957 l -7.9063,12.53711 v 3.6211 l -6.6347,-0.23633 v -20.21875 l -7.8438,-0.34961 v 27.93359 l -0.918,-0.0293 v -16.5625 l -0.9179,-0.0371 v -16.48243 l -2.1153,-0.0996 v -17.91211 l -7.3164,-0.40235 v 17.97071 l -3.4179,-0.16016 V 149.7051 l -4.5586,-0.23828 v -25.83008 l -9.2754,-0.58984 v 54.27148 l -0.4317,-0.0156 V 138.5938 l -5.625,-0.31836 v 11.72852 l -4.205,-0.2168 v 27.12695 l -0.9727,-0.0391 v 8.14844 l -2.1191,-0.10547 0.02,-75.36719 -11.0996,-0.85156 -0.043,58.70312 -0.375,-25.87695 -5.8574,-0.0234 v 7.4668 l -9.6992,2.9043 v 10.68359 l -11.6836,6.66016 v -5.66016 h -0.033 l 0.018,-43.93359 -29.9766,-2.19532 0.076,46.24024 -3.7696,-0.16602 -0.373,-61.77148 -10.1992,-0.7168 0.098,41.87305 -10.1582,-0.5332 v 11.5957 l -17.916,0.0195 -0.2051,-22.92187 -10.5097,-0.59766 0.084,29.65625 -6.7422,-0.33008 0.022,-24.97656 -14.0274,-0.75977 0.043,12.0918 -3.3067,-0.18555 -0.061,-26.63867 -15.0215,-1.04883 -0.051,7.98242 -9.4941,-20.75585 -0.4453,-0.0313 -0.8633,-0.0566 -0.8633,-0.0566 -2.5918,-0.16992 -0.022,40.70313 -7.5703,-0.46485 -0.1035,-15.9707 -3.1445,-0.23633 -0.02,-10.70898 -1.75,-0.10547 -1.0078,-0.0586 -1.1797,-0.0703 -5.4765,-0.33008 -9.0606,-0.54687 0.1035,7.38867 -1.2714,0.42969 0.1152,18.75 -3.3867,-0.11914 -0.045,6.48242 -11.1172,-0.52148 -0.1504,-24.28711 -12.4571,-0.70508 -0.025,26.71094 -3.6426,-0.16797 v -4.15625 c -0.6505,-1.8778 -1.3077,-3.75505 -1.959,-5.63477 l -7.8672,-0.39062 0.021,-6.84375 -7.0606,-0.3711 v -23.80469 l -12.5468,-0.77734 v 23.92188 l -5.1407,-0.26954 v 0.53907 c -1.8699,0.52462 -3.7427,1.04643 -5.6191,1.57226 l 0.2441,-49.966794 -30.9394,-2.201172 -0.2754,57.994136 -6.6543,-0.32421 v -9.53516 l -3.1504,-0.16602 c -0.3944,0.45225 -0.7898,0.90405 -1.1855,1.35547 v -6.20117 l -2.1836,-0.11719 v -4.77734 l -2.6328,-0.16992 -0.1817,19.15625 -1.1582,-0.0547 v 10.02344 l -2.1601,-0.0899 V 91.244141 c -0.3379,-0.674632 -0.6756,-1.354414 -1.0157,-2.029297 -1.9634,-1.08945 -3.9298,-2.178855 -5.8965,-3.271485 l -16.5878,3.714844 -3.7891,2.638672 v 44.476565 l -13.6035,-0.67188 -7.0977,3.50977 v 14.28515 l -6.584,0.10938 v 4.45898 l -2.5254,-0.10351 0.043,-7.29492 -2.209,0.1875 v 10.85547 l -3.6406,-0.14258 v -1.50586 l -3.9727,-0.15821 v -6.81835 l -11.3242,-0.48047 v -6.43555 l -1.832,-0.082 v 6.75976 l -1.9531,-0.0156 -0.2559,-53.2207 -11.8262,-0.734379 -0.3242,59.472659 -2.6484,-0.0645 0.3691,-29.77539 -3.7207,-0.1914 -5.3222,-0.27149 v 8.875 1.25196 c -2.8685,-2.62946 -6.2594,-10.97175 -9.1465,-13.61133 l -8.8653,-0.46289 -2.3027,-0.1211 v 19.40039 9.16211 l -13.5859,0.041 v -30.40039 l -2.791,-0.14649 -2.8321,2.27149 v -2.41992 l -0.6894,-0.0352 -1.3809,1.16992 v 16.70703 l -0.5176,0.0195 v 7.27149 l -2.2929,-0.0996 V 110 l -2.1582,-0.12109 V 84.494141 l -6.3711,-0.421875 v -3.625 l -6.4473,-0.435547 -2.8398,3.447265 -5.0039,-0.332031 -3.6426,3.408203 v 23.150394 l -3.1367,-0.17774 0.029,-20.806638 -17.875,-1.039063 v 16.027341 l -0.7403,-0.043 v -2.60937 l -2.1973,-0.12891 v 2.61133 l -2.1933,-0.12891 v 2.34571 l -4.3633,-0.25195 v -3.62305 l -2.248,-0.13281 v -2.546879 l -2.9786,-0.177735 v 2.550784 l -1.4863,-0.0879 v 2.35351 l -5.123,2.26563 v 3.69922 l -3.7657,-0.20899 v -1.21094 -1.2832 l -2.2343,-2.62109 v -9.849612 l -1.461,-0.08789 -2.2382,-0.136719 -1.5118,-0.0918 v 8.580081 2.57422 l -3.7519,-0.21484 -2.25,-0.12696 -0.8184,-0.0488 -1.3926,-0.0781 v 13.69336 l -0.7363,-0.0391 v 2.53906 l -5.8828,-0.52149 v 14.34571 l -4.5645,-0.21094 v 7.22266 l -4.0703,-0.22266 V 131.1738 l -10.1035,-0.48438 v 3.44141 l -3.7793,-0.17578 -0.078,-15.79492 -2.4395,-0.18555 -0.051,-49.748051 -17.7032,-1.115234 0.029,54.316405 -1.2089,1.30274 -1.8887,2.3418 -0.041,-2.61133 -1.8496,-1.01172 v -3.70313 l -2.3497,-0.12109 v -12.05859 l -4.5039,-0.86329 v -2.31445 l -0.6425,-0.0352 V 89.957031 l -0.8653,-0.05273 -0.8613,-0.05273 -3.4434,-3.699218 v 15.908207 l -3.4472,-0.19532 v 46.22657 l -2.8614,-0.12891 V 81.646484 l -13.3613,-0.847656 v 23.804692 l -2.1465,-0.11914 0.027,9.76367 -5.5996,-0.29102 v 15.11719 l -3.6719,-0.17188 v -2.50586 -2.52539 -2.59375 -2.59961 -2.52539 -2.59375 -2.59375 -2.52539 -2.59375 -2.59961 -2.5957 V 98.056641 95.601562 92.863281 78.765625 72.3125 l -28.4356,-1.882812 v 11.685546 3.972657 2.542968 2.550782 2.763671 2.480469 2.619141 2.619138 2.625 2.61914 2.54883 2.61914 2.61914 2.54883 2.62695 2.61914 2.54883 2.625 2.54883 1.3418 l -16.5039,-0.75196 v 2.63477 l -4.2109,-0.18945 v 3.85351 l -10.707,-0.46289 -0.1231,0.40235 v 3.23632 l -2.0019,-2.49023 V 80.662109 l -24.4199,-1.515625 v 62.519536 l -15.13482,-0.62696 v -1.91211 -16.9707 l -21.79687,16.72852 v -10.53711 l -16.08789,-0.72657 v 10.5918 l -4.60547,-0.19141 v 7.08399 l -3.76758,-0.14844 v -3.55273 l -3.71094,-0.15039 V 83.40625 l -10.6289,-0.630859 v 30.906249 l -6.82617,-0.33594 V 91.095703 l -7.53907,-0.425781 -8.49804,10.195308 v 52.62696 l -2.52735,-0.0918 v -19.02148 l -5.5625,-0.23633 v -5.63477 l -9.62109,-0.45117 V 90.080078 l -8.53125,-0.480469 -8.68164,10.449221 v 19.6582 l -10.98828,-0.51172 v 10.90625 l -3.91797,-5.14844 -11.20508,-0.5 -0.0742,22.85938 -2.875,-0.10742 0.16406,-3.37305 -5.14062,-0.0781 v -41.61914 l -12.07422,-0.62305 v 5.43945 l -2.42578,2.53906 v 31.97461 l -4.78125,-0.1875 v -0.82031 l -0.38281,-0.0156 -0.0332,-12.82227 -5.6289,-0.19336 v -10.57226 l -0.62305,-0.0293 V 90.851562 l -11.4082,-0.623046 -11.49024,13.484374 v 11.3125 l -1.20312,-0.0566 -0.16797,5.87695 -3.07227,5.99219 -1.54101,0.17773 -0.19727,10.88282 -3.01367,-0.11914 v 13.25781 l -0.75391,-0.0195 v -49.78711 l -13.40039,-0.68359 v 22.31054 7.11328 l -3.18164,-0.13281 v -2.04883 l -11.08789,-0.40429 v -5.15235 -23.484373 l -7.80078,-0.400391 -0.0547,-2.847656 -7.02929,-8.84375 -6.70703,8.621094 V 135.9668 l -2.3086,-0.0918 V 99.529297 L 712.1543,84.503906 699.91992,83.830078 v 12.585938 l -5.82226,-0.298828 v -4.845704 l -20.25391,-0.875 v 3.453125 l -0.25391,-0.0098 v 1.09375 l -1.72265,-0.08789 v 16.267581 l -1.89453,-0.0879 0.043,-10.44922 -1.91406,-0.0937 -0.0449,12.91797 -3.69531,-0.10156 v 10.46679 l -1.41797,-0.0586 v -8.37109 l -4.24414,-0.19141 0.0703,-7.37305 -3.76562,-0.17773 v -5.08203 l -20.83789,-0.94727 -0.0469,8.34571 -0.81055,-0.0371 V 86.529297 L 623.35156,74.367188 613.3418,73.802734 v 34.535156 l -0.45703,-0.0195 v 22.98242 l -5.74805,-0.22851 -0.0723,-7.08985 -13.53711,-0.56445 -0.0469,5.37109 -1.44531,-0.0742 V 83.205078 l -10.1875,-12.3125 -9.41602,-0.535156 v 24.742187 l -8.46875,-0.421875 V 60.152344 L 550.75195,59.363281 V 78.449219 L 547.75,78.130859 v 8.263672 L 535.80859,85.845703 V 61.289062 l -6.07617,-0.287109 -0.10156,24.453125 -4.10547,-0.06836 v 5.412109 l -3.82031,-0.121094 -0.15235,7.914063 -4.08593,-0.04883 v -5.56836 l -28.6836,-1.216797 -0.0488,13.615241 -8.37696,-0.45313 0.0508,-22.132814 -2.24609,-0.115234 0.0488,-8.09375 -4.13282,-0.224609 -0.0508,-27.607422 -8.34961,-0.517578 -0.0508,-11.013672 -12.5664,-0.744141 v 10.980469 l -8.48828,-0.525391 v 19.652344 l -6.45899,-0.769531 V 24.966797 l -8.61914,-0.580078 V 10.763672 l -6.50781,-0.462891 0.10742,16.367188 -6.63672,-0.226563 -0.10742,25.251953 -2.92383,-0.103515 -0.31055,22.265625 -3.10546,-0.238281 0.0527,-39.634766 -4.45703,-0.359375 0.16211,-10.699219 -21.88672,-1.40039 v 47.878906 l -22.21094,-1.066406 -0.0527,19.832031 -6.74805,-0.119141 0.0527,-40.089844 -8.97266,-0.197265 0.11328,-29.001953 -9.00781,-0.46875 v 11.408203 l -20.2793,-1.302735 -0.11328,20.75 c -0.17074,-0.01116 -0.33825,7.765541 -0.50977,7.75586 l -6.35351,11.568359 -0.17188,23.126953 -2.23633,-0.105468 V 85.449219 L 293.50977,84.486328 V 70.126953 l -18.42188,-0.970703 -0.0547,-0.002 -9.35937,11.503906 V 13.341797 l -4.87305,-0.404297 -0.0566,-8.4433594 z"
       sodipodi:nodetypes="cccccccccccccccccccccccccccccccccccccccccccccccccccccccccccccccccccccccccccccccccccccccccccccccccccccccccccccccccccccccccccccccccccccccccccccccccccccccccccccccccccccccccccccccccccccccccccccccccccccccccccccccccccccccccccccccccccccccccccccccccccccccccccccccccccccccccccccccccccccccccccccccccccccccccccccccccccccccccccccccccccccccccccccccccccccccccccccccccccccccccccccccccccccccccccccccccccccccccccccccccccccccccccccccccccccccccccccccccccccccccccccccccccccccccccccccccccccccccccccccccccccccccccccccccccccccccccccccccccccccccccccccccccccccccccccccccccccccccccccccccccccccccccccccccccccc" />
  </g>
</svg>
